<svg xmlns="http://www.w3.org/2000/svg" width="128" height="128" class="icon" viewBox="0 0 1024 1024"><path d="M844.8 883.2h-256c-19.2 0-38.4-19.2-38.4-38.4v-256c0-19.2 19.2-38.4 38.4-38.4h256c19.2 0 38.4 19.2 38.4 38.4v256c0 19.2-19.2 38.4-38.4 38.4zm0-403.2h-256c-19.2 0-38.4-19.2-38.4-38.4v-256c0-19.2 19.2-38.4 38.4-38.4h256c19.2 0 38.4 19.2 38.4 38.4v256c0 19.2-19.2 38.4-38.4 38.4zM435.2 883.2h-256c-19.2 0-38.4-19.2-38.4-38.4v-256c0-19.2 19.2-38.4 38.4-38.4h256c19.2 0 38.4 19.2 38.4 38.4v256c6.4 19.2-12.8 38.4-38.4 38.4zm0-403.2h-256c-19.2 0-38.4-19.2-38.4-38.4v-256c0-19.2 19.2-38.4 38.4-38.4h256c19.2 0 38.4 19.2 38.4 38.4v256c6.4 19.2-12.8 38.4-38.4 38.4z"/></svg>